<?xml version="1.0" encoding="UTF-8"?>
<svg width="467px" height="487px" viewBox="0 0 467 487" version="1.1" xmlns="http://www.w3.org/2000/svg" xmlns:xlink="http://www.w3.org/1999/xlink">
    <!-- Generator: Sketch 50 (54983) - http://www.bohemiancoding.com/sketch -->
    <title>Untitled</title>
    <desc>Created with Sketch.</desc>
    <defs>
        <polygon id="path-1" points="153.35504 452.740267 146.35504 447.740267 142.35504 439.740267 138.35504 426.740267 136.35504 418.740267 136.35504 409.740267 132.35504 402.740267 126.35504 392.740267 121.35504 386.740267 119.35504 384.740267 119.35504 374.740267 115.35504 361.740267 110.35504 351.740267 107.35504 339.740267 100.35504 330.740267 100.35504 317.740267 98.3550397 307.740267 96.3550397 295.740267 96.3550397 282.740267 94.3550397 279.740267 94.3550397 274.740267 91.3550397 270.740267 94.3550397 264.740267 96.3550397 260.740267 98.3550397 260.740267 96.3550397 255.740267 96.3550397 250.740267 98.3550397 246.740267 94.3550397 244.740267 94.3550397 241.740267 94.3550397 236.740267 88.3550397 241.740267 88.3550397 246.740267 88.3550397 250.740267 83.3550397 253.740267 76.3550397 257.740267 68.3550397 257.740267 60.3550397 253.740267 54.3550397 246.740267 50.3550397 241.740267 50.3550397 239.740267 45.3550397 233.740267 45.3550397 230.740267 48.3550397 230.740267 57.3550397 233.740267 60.3550397 233.740267 63.3550397 230.740267 63.3550397 226.740267 63.3550397 223.740267 60.3550397 223.740267 50.3550397 223.740267 45.3550397 219.740267 41.3550397 216.740267 38.3550397 212.740267 36.3550397 208.740267 41.3550397 205.740267 50.3550397 203.740267 57.3550397 205.740267 60.3550397 205.740267 66.3550397 201.740267 68.3550397 201.740267 71.3550397 203.740267 74.3550397 203.740267 76.3550397 201.740267 74.3550397 193.740267 71.3550397 187.740267 68.3550397 187.740267 66.3550397 183.740267 63.3550397 176.740267 66.3550397 171.740267 60.3550397 167.740267 54.3550397 167.740267 60.3550397 160.740267 63.3550397 155.740267 63.3550397 152.740267 71.3550397 150.740267 78.3550397 152.740267 80.3550397 155.740267 85.3550397 152.740267 88.3550397 150.740267 94.3550397 142.740267 98.3550397 140.740267 107.35504 131.740267 113.35504 125.740267 117.35504 120.740267 121.35504 120.740267 121.35504 114.740267 124.35504 111.740267 126.35504 111.740267 129.35504 102.740267 129.35504 97.740267 136.35504 92.740267 138.35504 90.740267 134.35504 85.740267 129.35504 81.740267 126.35504 76.740267 124.35504 68.740267 121.35504 58.740267 124.35504 51.740267 149.35504 51.740267 160.35504 48.740267 169.35504 43.740267 174.35504 40.740267 179.35504 37.740267 181.35504 33.740267 191.35504 33.740267 198.35504 37.740267 203.35504 40.740267 201.35504 53.740267 198.35504 58.740267 195.35504 63.740267 189.35504 66.740267 186.35504 68.740267 191.35504 76.740267 195.35504 81.740267 195.35504 85.740267 195.35504 90.740267 191.35504 92.740267 186.35504 90.740267 183.35504 81.740267 181.35504 85.740267 183.35504 92.740267 183.35504 102.740267 191.35504 104.740267 198.35504 107.740267 201.35504 114.740267 207.35504 114.740267 213.35504 120.740267 213.35504 127.740267 201.35504 140.740267 216.35504 150.740267 223.35504 155.740267 231.35504 155.740267 239.35504 162.740267 253.35504 162.740267 260.35504 164.740267 262.35504 167.740267 264.35504 171.740267 286.35504 176.740267 302.35504 176.740267 309.35504 174.740267 307.35504 162.740267 307.35504 155.740267 312.35504 152.740267 317.35504 158.740267 320.35504 167.740267 327.35504 171.740267 349.35504 169.740267 358.35504 169.740267 358.35504 162.740267 356.35504 155.740267 364.35504 150.740267 367.35504 149.740267 373.35504 144.740267 381.35504 136.740267 387.35504 131.740267 392.35504 128.740267 402.35504 130.740267 406.35504 130.740267 410.35504 124.740267 414.35504 125.740267 417.35504 128.740267 417.35504 132.740267 417.35504 138.740267 421.35504 139.740267 425.35504 139.740267 430.35504 140.740267 430.35504 144.740267 430.35504 150.740267 427.35504 154.740267 426.35504 157.740267 421.35504 157.740267 418.35504 158.740267 415.35504 161.740267 410.35504 163.740267 404.35504 168.740267 403.35504 178.740267 400.35504 184.740267 396.35504 188.740267 398.35504 191.740267 398.35504 197.740267 396.35504 197.740267 395.35504 206.740267 392.35504 208.740267 388.35504 209.740267 382.35504 209.740267 386.35504 215.740267 385.35504 219.740267 382.35504 221.740267 379.35504 224.740267 382.35504 230.740267 380.35504 237.740267 376.35504 239.740267 372.35504 238.740267 369.35504 236.740267 370.35504 229.740267 370.35504 224.740267 366.35504 219.740267 362.35504 218.740267 357.35504 220.740267 353.35504 221.740267 349.35504 216.740267 349.35504 210.740267 352.35504 205.740267 357.35504 203.740267 364.35504 201.740267 365.35504 196.740267 344.35504 197.740267 338.35504 195.740267 334.35504 193.740267 333.35504 187.740267 329.35504 184.740267 324.35504 182.740267 320.35504 179.740267 318.35504 178.740267 315.35504 178.740267 312.35504 179.740267 311.35504 182.740267 313.35504 185.740267 317.35504 187.740267 319.35504 190.740267 319.35504 194.740267 317.35504 196.740267 314.35504 197.740267 310.35504 202.740267 311.35504 206.740267 315.35504 208.740267 321.35504 210.740267 321.35504 214.740267 319.35504 216.740267 319.35504 219.740267 321.35504 225.740267 323.35504 230.740267 323.35504 234.740267 323.35504 241.740267 322.35504 246.740267 320.35504 248.740267 316.35504 250.740267 311.35504 249.740267 309.35504 247.740267 305.35504 247.740267 301.35504 249.740267 298.35504 253.740267 298.35504 259.740267 296.35504 264.740267 293.35504 270.740267 287.35504 275.740267 282.35504 279.740267 277.35504 279.740267 274.35504 280.740267 270.35504 283.740267 266.35504 288.740267 264.35504 293.740267 261.35504 296.740267 257.35504 301.740267 252.35504 303.740267 247.35504 306.740267 244.35504 308.740267 243.35504 311.740267 239.35504 315.740267 235.35504 315.740267 234.35504 320.740267 230.35504 328.740267 225.35504 328.740267 220.35504 330.740267 215.35504 333.740267 211.35504 336.740267 206.35504 337.740267 200.35504 338.740267 198.35504 344.740267 199.35504 349.740267 200.35504 356.740267 199.35504 361.740267 198.35504 367.740267 201.35504 371.740267 201.35504 377.740267 200.35504 382.740267 199.35504 387.740267 197.35504 390.740267 196.35504 394.740267 196.35504 398.740267 194.35504 400.740267 192.35504 402.740267 193.35504 407.740267 195.35504 412.740267 194.35504 417.740267 191.35504 418.740267 188.35504 420.740267 184.35504 422.740267 179.35504 427.740267 180.35504 430.740267 183.35504 432.740267 184.35504 434.740267 183.35504 437.740267 179.35504 437.740267 176.35504 439.740267 173.35504 440.740267 170.35504 441.740267 169.35504 443.740267 167.35504 444.740267 164.35504 447.740267 162.35504 449.740267 158.35504 452.740267"></polygon>
    </defs>
    <g id="Page-1" stroke="none" stroke-width="1" fill="none" fill-rule="evenodd">
        <g id="Rectangle-+-Rectangle-Copy-26-+-Rectangle-Copy-15-+-Rectangle-Copy-82-+-Rectangle-Copy-110-+-Rectangle-Copy-103-+-Rectangle-Copy-126-+-Rectangle-Copy-120-+-Rectangle-Copy-20-+-Rectangle-Copy-27-+-Rectangle-Copy-58-+-Rectangle-Copy-66-+-Rectangle-Copy-9-+-Rectangle-Copy-14-+-Rectangle-Copy-143-+-Rectangle-Copy-144-+-Rectangle-Copy-36-+-Rectangle-+-Rectangle-Copy-83-+-Rectangle-Copy-+-Rectangle-Copy-84-+-Rectangle-Copy-31-+-Rectangle-Copy-69-+-Rectangle-Copy-2-+-Rectangle-Copy-34-+-Rectangle-Copy-35-+-Rectangle-Copy-62-+-Rectangle-Copy-105-+-Rectangle-Copy-137-+-Rectangle-Copy-123-+-Rectangle-Copy-8-+-Rectangle-Copy-93-+-Rectangle-Copy-6-+-Rectangle-Copy-89-+-Rectangle-Copy-33-+-Rectangle-Copy-97-+-Rectangle-Copy-139-+-Rectangle-Copy-140-+-Rectangle-Copy-42-+-Rectangle-Copy-19-+-Rectangle-Copy-52-+-Rectangle-Copy-48-+-Rectangle-Copy-45-+-Rectangle-Copy-64-+-Rectangle-Copy-71-+-Rectangle-Copy-113-+-Rectangle-Copy-50-+-Rectangle-Copy-23-+-Rectangle-Copy-39-+-Rectangle-Copy-41-+-Rectangle-Copy-68-+-Rectangle-Copy-112-+-Rectangle-Copy-60-+-Rectangle-Copy-10-+-Rectangle-Copy-7-+-Rectangle-Copy-88-+-Rectangle-Copy-55-+-Rectangle-Copy-46-+-Rectangle-Copy-11-+-Rectangle-Copy-32-+-Rectangle-Copy-95-+-Rectangle-Copy-134-+-Rectangle-Copy-100-+-Rectangle-Copy-145-+-Rectangle-Copy-147-+-Rectangle-Copy-37-+-Rectangle-Copy-61-+-Rectangle-Copy-43-+-Rectangle-Copy-44-+-Rectangle-Copy-49-+-Rectangle-Copy-63-+-Rectangle-Copy-72-+-Rectangle-Copy-70-+-Rectangle-Copy-81-+-Rectangle-Copy-111-+-Rectangle-Copy-121-+-Rectangle-Copy-122-+-Rectangle-Copy-25-+-Rectangle-Copy-3-+-Rectangle-Copy-38-+-Rectangle-Copy-99-+-Rectangle-Copy-67-+-Rectangle-Copy-142-+-Rectangle-Copy-146-+-Rectangle-Copy-80-+-Rectangle-Copy-108-+-Rectangle-Copy-4-+-Rectangle-Copy-13-+-Rectangle-Copy-53-+-Rectangle-Copy-22-+-Rectangle-Copy-47-+-Rectangle-Copy-24-+-Rectangle-Copy-59-+-Rectangle-Copy-74-+-Rectangle-Copy-75-+-Rectangle-Copy-76-+-Rectangle-Copy-77-+-Rectangle-Copy-65-+-Rectangle-Copy-40-+-Rectangle-Copy-17-+-Rectangle-Copy-18-+-Rectangle-Copy-91-+-Rectangle-Copy-87-+-Rectangle-Copy-92-+-Rectangle-Copy-56-+-Rectangle-Copy-127-+-Rectangle-Copy-128-+-Rectangle-Copy-129-+-Rectangle-Copy-130-+-Rectangle-Copy-57-+-Rectangle-Copy-29-+-Rectangle-Copy-96-+-Rectangle-Copy-101-+-Rectangle-Copy-102-+-Rectangle-Copy-98-+-Rectangle-Copy-131-+-Rectangle-Copy-132-+-Rectangle-Copy-148-+-Rectangle-Copy-141-+-Rectangle-Copy-151-+-Rectangle-Copy-133-+-Rectangle-Copy-138-+-Rectangle-Copy-30-+-Rectangle-Copy-51-+-Rectangle-Copy-73-+-Rectangle-Copy-85-+-Rectangle-Copy-106-+-Rectangle-Copy-107-+-Rectangle-Copy-114-+-Rectangle-Copy-124-+-Rectangle-Copy-125-+-Rectangle-Copy-115-+-Rectangle-Copy-119-+-Rectangle-Copy-116-+-Rectangle-Copy-118-+-Rectangle-Copy-5-+-Rectangle-Copy-90-+-Rectangle-Copy-28-+-Rectangle-Copy-21-+-Rectangle-Copy-16-+-Rectangle-Copy-94-+-Rectangle-Copy-104-+-Rectangle-Copy-135-+-Rectangle-Copy-136-+-Rectangle-Copy-149-+-Rectangle-Copy-150-+-Rectangle-Copy-78-+-Rectangle-Copy-86-+-Rectangle-Copy-79-+-Rectangle-Copy-109-+-Rectangle-Copy-117-+-Rectangle-Copy-54-+-Rectangle-Copy-12-+-Path-Mask">
            <mask id="mask-2" fill="white">
                <use xlink:href="#path-1"></use>
            </mask>
            <use id="Mask" fill="#61B1A2" transform="translate(233.355040, 243.240267) rotate(11.000000) translate(-233.355040, -243.240267) " xlink:href="#path-1"></use>
            <rect id="Rectangle" fill="#D58266" mask="url(#mask-2)" x="93" y="308" width="24" height="24"></rect>
            <rect id="Rectangle-Copy-26" fill="#D58266" mask="url(#mask-2)" x="189" y="260" width="24" height="24"></rect>
            <rect id="Rectangle-Copy-15" fill="#D58266" mask="url(#mask-2)" x="93" y="260" width="24" height="24"></rect>
            <rect id="Rectangle-Copy-82" fill="#D58266" mask="url(#mask-2)" x="189" y="140" width="24" height="24"></rect>
            <rect id="Rectangle-Copy-110" fill="#D58266" mask="url(#mask-2)" x="165" y="68" width="24" height="24"></rect>
            <rect id="Rectangle-Copy-103" fill="#D58266" mask="url(#mask-2)" x="237" y="140" width="24" height="24"></rect>
            <rect id="Rectangle-Copy-126" fill="#D58266" mask="url(#mask-2)" x="237" y="116" width="24" height="24"></rect>
            <rect id="Rectangle-Copy-120" fill="#D58266" mask="url(#mask-2)" x="213" y="20" width="24" height="24"></rect>
            <rect id="Rectangle-Copy-20" fill="#D58266" mask="url(#mask-2)" x="117" y="236" width="24" height="24"></rect>
            <rect id="Rectangle-Copy-27" fill="#D58266" mask="url(#mask-2)" x="141" y="236" width="24" height="24"></rect>
            <rect id="Rectangle-Copy-58" fill="#D58266" mask="url(#mask-2)" x="165" y="212" width="24" height="24"></rect>
            <rect id="Rectangle-Copy-66" fill="#D58266" mask="url(#mask-2)" x="141" y="188" width="24" height="24"></rect>
            <rect id="Rectangle-Copy-9" fill="#D58266" mask="url(#mask-2)" x="129" y="356" width="24" height="24"></rect>
            <rect id="Rectangle-Copy-14" fill="#D58266" mask="url(#mask-2)" x="165" y="284" width="24" height="24"></rect>
            <rect id="Rectangle-Copy-143" fill="#D58266" mask="url(#mask-2)" x="405" y="188" width="24" height="24"></rect>
            <rect id="Rectangle-Copy-144" fill="#D58266" mask="url(#mask-2)" x="429" y="188" width="24" height="24"></rect>
            <rect id="Rectangle-Copy-36" fill="#D58266" mask="url(#mask-2)" x="237" y="284" width="24" height="24"></rect>
            <rect id="Rectangle" fill="#95CBC9" mask="url(#mask-2)" x="117" y="308" width="24" height="24"></rect>
            <rect id="Rectangle-Copy-83" fill="#95CBC9" mask="url(#mask-2)" x="93" y="140" width="24" height="24"></rect>
            <rect id="Rectangle-Copy" fill="#DFAA83" mask="url(#mask-2)" x="93" y="284" width="24" height="24"></rect>
            <rect id="Rectangle-Copy-84" fill="#DFAA83" mask="url(#mask-2)" x="69" y="140" width="24" height="24"></rect>
            <rect id="Rectangle-Copy-31" fill="#DFAA83" mask="url(#mask-2)" x="237" y="260" width="24" height="24"></rect>
            <rect id="Rectangle-Copy-69" fill="#DFAA83" mask="url(#mask-2)" x="165" y="164" width="24" height="24"></rect>
            <rect id="Rectangle-Copy-2" fill="#F6D2B3" mask="url(#mask-2)" x="117" y="284" width="24" height="24"></rect>
            <rect id="Rectangle-Copy-34" fill="#F6D2B3" mask="url(#mask-2)" x="165" y="236" width="24" height="24"></rect>
            <rect id="Rectangle-Copy-35" fill="#F6D2B3" mask="url(#mask-2)" x="285" y="236" width="24" height="24"></rect>
            <rect id="Rectangle-Copy-62" fill="#F6D2B3" mask="url(#mask-2)" x="237" y="188" width="24" height="24"></rect>
            <rect id="Rectangle-Copy-105" fill="#F6D2B3" mask="url(#mask-2)" x="285" y="164" width="24" height="24"></rect>
            <rect id="Rectangle-Copy-137" fill="#F6D2B3" mask="url(#mask-2)" x="357" y="164" width="24" height="24"></rect>
            <rect id="Rectangle-Copy-123" fill="#F6D2B3" mask="url(#mask-2)" x="213" y="68" width="24" height="24"></rect>
            <rect id="Rectangle-Copy-8" fill="#F6D2B3" mask="url(#mask-2)" x="129" y="332" width="24" height="24"></rect>
            <rect id="Rectangle-Copy-93" fill="#F6D2B3" mask="url(#mask-2)" x="177" y="356" width="24" height="24"></rect>
            <rect id="Rectangle-Copy-6" fill="#8EC3B6" mask="url(#mask-2)" x="105" y="380" width="24" height="24"></rect>
            <rect id="Rectangle-Copy-89" fill="#61B1A2" mask="url(#mask-2)" x="105" y="380" width="24" height="24"></rect>
            <rect id="Rectangle-Copy-33" fill="#8EC3B6" mask="url(#mask-2)" x="261" y="236" width="24" height="24"></rect>
            <rect id="Rectangle-Copy-97" fill="#8EC3B6" mask="url(#mask-2)" x="261" y="188" width="24" height="24"></rect>
            <rect id="Rectangle-Copy-139" fill="#8EC3B6" mask="url(#mask-2)" x="333" y="212" width="24" height="24"></rect>
            <rect id="Rectangle-Copy-140" fill="#8EC3B6" mask="url(#mask-2)" x="381" y="188" width="24" height="24"></rect>
            <rect id="Rectangle-Copy-42" fill="#8EC3B6" mask="url(#mask-2)" x="213" y="188" width="24" height="24"></rect>
            <rect id="Rectangle-Copy-19" fill="#8EC3B6" mask="url(#mask-2)" x="141" y="260" width="24" height="24"></rect>
            <rect id="Rectangle-Copy-52" fill="#E6898B" mask="url(#mask-2)" x="69" y="260" width="24" height="24"></rect>
            <rect id="Rectangle-Copy-48" fill="#8EC3B6" mask="url(#mask-2)" x="69" y="188" width="24" height="24"></rect>
            <rect id="Rectangle-Copy-45" fill="#8EC3B6" mask="url(#mask-2)" x="93" y="212" width="24" height="24"></rect>
            <rect id="Rectangle-Copy-64" fill="#8EC3B6" mask="url(#mask-2)" x="117" y="188" width="24" height="24"></rect>
            <rect id="Rectangle-Copy-71" fill="#8EC3B6" mask="url(#mask-2)" x="117" y="164" width="24" height="24"></rect>
            <rect id="Rectangle-Copy-113" fill="#8EC3B6" mask="url(#mask-2)" x="189" y="68" width="24" height="24"></rect>
            <rect id="Rectangle-Copy-50" fill="#BB8F9D" mask="url(#mask-2)" x="45" y="212" width="24" height="24"></rect>
            <rect id="Rectangle-Copy-23" fill="#8EC3B6" mask="url(#mask-2)" x="189" y="284" width="24" height="24"></rect>
            <rect id="Rectangle-Copy-39" fill="#8EC3B6" mask="url(#mask-2)" x="213" y="236" width="24" height="24"></rect>
            <rect id="Rectangle-Copy-41" fill="#8EC3B6" mask="url(#mask-2)" x="237" y="212" width="24" height="24"></rect>
            <rect id="Rectangle-Copy-68" fill="#8EC3B6" mask="url(#mask-2)" x="237" y="164" width="24" height="24"></rect>
            <rect id="Rectangle-Copy-112" fill="#8EC3B6" mask="url(#mask-2)" x="189" y="116" width="24" height="24"></rect>
            <rect id="Rectangle-Copy-60" fill="#8EC3B6" mask="url(#mask-2)" x="189" y="188" width="24" height="24"></rect>
            <rect id="Rectangle-Copy-10" fill="#8EC3B6" mask="url(#mask-2)" x="129" y="380" width="24" height="24"></rect>
            <rect id="Rectangle-Copy-7" fill="#8EC3B6" mask="url(#mask-2)" x="129" y="380" width="24" height="24"></rect>
            <rect id="Rectangle-Copy-88" fill="#E6898B" mask="url(#mask-2)" x="129" y="404" width="24" height="24"></rect>
            <rect id="Rectangle-Copy-55" fill="#E6898B" mask="url(#mask-2)" x="81" y="332" width="24" height="24"></rect>
            <rect id="Rectangle-Copy-46" fill="#E6898B" mask="url(#mask-2)" x="189" y="308" width="24" height="24"></rect>
            <rect id="Rectangle-Copy-11" fill="#E6898B" mask="url(#mask-2)" x="141" y="308" width="24" height="24"></rect>
            <rect id="Rectangle-Copy-32" fill="#E6898B" mask="url(#mask-2)" x="261" y="260" width="24" height="24"></rect>
            <rect id="Rectangle-Copy-95" fill="#E6898B" mask="url(#mask-2)" x="285" y="260" width="24" height="24"></rect>
            <rect id="Rectangle-Copy-134" fill="#E6898B" mask="url(#mask-2)" x="357" y="212" width="24" height="24"></rect>
            <rect id="Rectangle-Copy-100" fill="#E6898B" mask="url(#mask-2)" x="309" y="212" width="24" height="24"></rect>
            <rect id="Rectangle-Copy-145" fill="#E6898B" mask="url(#mask-2)" x="429" y="164" width="24" height="24"></rect>
            <rect id="Rectangle-Copy-147" fill="#E6898B" mask="url(#mask-2)" x="429" y="140" width="24" height="24"></rect>
            <rect id="Rectangle-Copy-37" fill="#E6898B" mask="url(#mask-2)" x="261" y="212" width="24" height="24"></rect>
            <rect id="Rectangle-Copy-61" fill="#E6898B" mask="url(#mask-2)" x="213" y="164" width="24" height="24"></rect>
            <rect id="Rectangle-Copy-43" fill="#E6898B" mask="url(#mask-2)" x="189" y="212" width="24" height="24"></rect>
            <rect id="Rectangle-Copy-44" fill="#E6898B" mask="url(#mask-2)" x="117" y="212" width="24" height="24"></rect>
            <rect id="Rectangle-Copy-49" fill="#E6898B" mask="url(#mask-2)" x="69" y="212" width="24" height="24"></rect>
            <rect id="Rectangle-Copy-63" fill="#E6898B" mask="url(#mask-2)" x="93" y="188" width="24" height="24"></rect>
            <rect id="Rectangle-Copy-72" fill="#E6898B" mask="url(#mask-2)" x="69" y="164" width="24" height="24"></rect>
            <rect id="Rectangle-Copy-70" fill="#E6898B" mask="url(#mask-2)" x="141" y="164" width="24" height="24"></rect>
            <rect id="Rectangle-Copy-81" fill="#E6898B" mask="url(#mask-2)" x="117" y="116" width="24" height="24"></rect>
            <rect id="Rectangle-Copy-111" fill="#E6898B" mask="url(#mask-2)" x="165" y="44" width="24" height="24"></rect>
            <rect id="Rectangle-Copy-121" fill="#E6898B" mask="url(#mask-2)" x="213" y="44" width="24" height="24"></rect>
            <rect id="Rectangle-Copy-122" fill="#E6898B" mask="url(#mask-2)" x="237" y="28" width="24" height="24"></rect>
            <rect id="Rectangle-Copy-25" fill="#E6898B" mask="url(#mask-2)" x="213" y="284" width="24" height="24"></rect>
            <rect id="Rectangle-Copy-3" fill="#F2C4C2" mask="url(#mask-2)" x="105" y="332" width="24" height="24"></rect>
            <rect id="Rectangle-Copy-38" fill="#61B1A2" mask="url(#mask-2)" x="189" y="236" width="24" height="24"></rect>
            <rect id="Rectangle-Copy-99" fill="#F2C4C2" mask="url(#mask-2)" x="309" y="260" width="24" height="24"></rect>
            <rect id="Rectangle-Copy-67" fill="#F2C4C2" mask="url(#mask-2)" x="189" y="164" width="24" height="24"></rect>
            <rect id="Rectangle-Copy-142" fill="#F2C4C2" mask="url(#mask-2)" x="405" y="164" width="24" height="24"></rect>
            <rect id="Rectangle-Copy-146" fill="#F2C4C2" mask="url(#mask-2)" x="405" y="140" width="24" height="24"></rect>
            <rect id="Rectangle-Copy-80" fill="#F2C4C2" mask="url(#mask-2)" x="141" y="116" width="24" height="24"></rect>
            <rect id="Rectangle-Copy-108" fill="#F2C4C2" mask="url(#mask-2)" x="165" y="92" width="24" height="24"></rect>
            <rect id="Rectangle-Copy-4" fill="#61B1A2" mask="url(#mask-2)" x="105" y="356" width="24" height="24"></rect>
            <rect id="Rectangle-Copy-13" fill="#61B1A2" mask="url(#mask-2)" x="141" y="284" width="24" height="24"></rect>
            <rect id="Rectangle-Copy-53" fill="#61B1A2" mask="url(#mask-2)" x="69" y="284" width="24" height="24"></rect>
            <rect id="Rectangle-Copy-22" fill="#61B1A2" mask="url(#mask-2)" x="165" y="260" width="24" height="24"></rect>
            <rect id="Rectangle-Copy-47" fill="#61B1A2" mask="url(#mask-2)" x="165" y="308" width="24" height="24"></rect>
            <rect id="Rectangle-Copy-24" fill="#61B1A2" mask="url(#mask-2)" x="141" y="236" width="24" height="24"></rect>
            <rect id="Rectangle-Copy-59" fill="#61B1A2" mask="url(#mask-2)" x="141" y="212" width="24" height="24"></rect>
            <rect id="Rectangle-Copy-74" fill="#61B1A2" mask="url(#mask-2)" x="93" y="164" width="24" height="24"></rect>
            <rect id="Rectangle-Copy-75" fill="#61B1A2" mask="url(#mask-2)" x="117" y="140" width="24" height="24"></rect>
            <rect id="Rectangle-Copy-76" fill="#61B1A2" mask="url(#mask-2)" x="165" y="140" width="24" height="24"></rect>
            <rect id="Rectangle-Copy-77" fill="#61B1A2" mask="url(#mask-2)" x="213" y="140" width="24" height="24"></rect>
            <rect id="Rectangle-Copy-65" fill="#61B1A2" mask="url(#mask-2)" x="165" y="188" width="24" height="24"></rect>
            <rect id="Rectangle-Copy-40" fill="#61B1A2" mask="url(#mask-2)" x="213" y="212" width="24" height="24"></rect>
            <rect id="Rectangle-Copy-17" fill="#61B1A2" mask="url(#mask-2)" x="117" y="260" width="24" height="24"></rect>
            <rect id="Rectangle-Copy-18" fill="#61B1A2" mask="url(#mask-2)" x="153" y="356" width="24" height="24"></rect>
            <rect id="Rectangle-Copy-91" fill="#61B1A2" mask="url(#mask-2)" x="153" y="404" width="24" height="24"></rect>
            <rect id="Rectangle-Copy-87" fill="#61B1A2" mask="url(#mask-2)" x="177" y="332" width="24" height="24"></rect>
            <rect id="Rectangle-Copy-92" fill="#61B1A2" mask="url(#mask-2)" x="213" y="308" width="24" height="24"></rect>
            <rect id="Rectangle-Copy-56" fill="#61B1A2" mask="url(#mask-2)" x="81" y="356" width="24" height="24"></rect>
            <rect id="Rectangle-Copy-127" fill="#61B1A2" mask="url(#mask-2)" x="81" y="380" width="24" height="24"></rect>
            <rect id="Rectangle-Copy-128" fill="#61B1A2" mask="url(#mask-2)" x="105" y="428" width="24" height="24"></rect>
            <rect id="Rectangle-Copy-129" fill="#61B1A2" mask="url(#mask-2)" x="129" y="428" width="24" height="24"></rect>
            <rect id="Rectangle-Copy-130" fill="#61B1A2" mask="url(#mask-2)" x="81" y="404" width="24" height="24"></rect>
            <rect id="Rectangle-Copy-57" fill="#61B1A2" mask="url(#mask-2)" x="69" y="236" width="24" height="24"></rect>
            <rect id="Rectangle-Copy-29" fill="#61B1A2" mask="url(#mask-2)" x="237" y="236" width="24" height="24"></rect>
            <rect id="Rectangle-Copy-96" fill="#61B1A2" mask="url(#mask-2)" x="285" y="212" width="24" height="24"></rect>
            <rect id="Rectangle-Copy-101" fill="#61B1A2" mask="url(#mask-2)" x="285" y="188" width="24" height="24"></rect>
            <rect id="Rectangle-Copy-102" fill="#61B1A2" mask="url(#mask-2)" x="261" y="164" width="24" height="24"></rect>
            <rect id="Rectangle-Copy-98" fill="#61B1A2" mask="url(#mask-2)" x="309" y="236" width="24" height="24"></rect>
            <rect id="Rectangle-Copy-131" fill="#61B1A2" mask="url(#mask-2)" x="333" y="236" width="24" height="24"></rect>
            <rect id="Rectangle-Copy-132" fill="#61B1A2" mask="url(#mask-2)" x="381" y="212" width="24" height="24"></rect>
            <rect id="Rectangle-Copy-148" fill="#61B1A2" mask="url(#mask-2)" x="405" y="212" width="24" height="24"></rect>
            <rect id="Rectangle-Copy-141" fill="#61B1A2" mask="url(#mask-2)" x="381" y="164" width="24" height="24"></rect>
            <rect id="Rectangle-Copy-151" fill="#61B1A2" mask="url(#mask-2)" x="381" y="140" width="24" height="24"></rect>
            <rect id="Rectangle-Copy-133" fill="#61B1A2" mask="url(#mask-2)" x="316" y="164" width="24" height="24"></rect>
            <rect id="Rectangle-Copy-138" fill="#61B1A2" mask="url(#mask-2)" x="333" y="188" width="24" height="24"></rect>
            <rect id="Rectangle-Copy-30" fill="#61B1A2" mask="url(#mask-2)" x="93" y="236" width="24" height="24"></rect>
            <rect id="Rectangle-Copy-51" fill="#61B1A2" mask="url(#mask-2)" x="45" y="188" width="24" height="24"></rect>
            <rect id="Rectangle-Copy-73" fill="#61B1A2" mask="url(#mask-2)" x="45" y="164" width="24" height="24"></rect>
            <rect id="Rectangle-Copy-85" fill="#61B1A2" mask="url(#mask-2)" x="69" y="116" width="24" height="24"></rect>
            <rect id="Rectangle-Copy-106" fill="#61B1A2" mask="url(#mask-2)" x="117" y="92" width="24" height="24"></rect>
            <rect id="Rectangle-Copy-107" fill="#61B1A2" mask="url(#mask-2)" x="141" y="92" width="24" height="24"></rect>
            <rect id="Rectangle-Copy-114" fill="#61B1A2" mask="url(#mask-2)" x="189" y="92" width="24" height="24"></rect>
            <rect id="Rectangle-Copy-124" fill="#61B1A2" mask="url(#mask-2)" x="213" y="92" width="24" height="24"></rect>
            <rect id="Rectangle-Copy-125" fill="#61B1A2" mask="url(#mask-2)" x="213" y="116" width="24" height="24"></rect>
            <rect id="Rectangle-Copy-115" fill="#61B1A2" mask="url(#mask-2)" x="189" y="44" width="24" height="24"></rect>
            <rect id="Rectangle-Copy-119" fill="#61B1A2" mask="url(#mask-2)" x="189" y="20" width="24" height="24"></rect>
            <rect id="Rectangle-Copy-116" fill="#61B1A2" mask="url(#mask-2)" x="141" y="44" width="24" height="24"></rect>
            <rect id="Rectangle-Copy-118" fill="#61B1A2" mask="url(#mask-2)" x="141" y="20" width="24" height="24"></rect>
            <rect id="Rectangle-Copy-5" fill="#BB8F9D" mask="url(#mask-2)" x="105" y="356" width="24" height="24"></rect>
            <rect id="Rectangle-Copy-90" fill="#BB8F9D" mask="url(#mask-2)" x="153" y="380" width="24" height="24"></rect>
            <rect id="Rectangle-Copy-28" fill="#BB8F9D" mask="url(#mask-2)" x="213" y="260" width="24" height="24"></rect>
            <rect id="Rectangle-Copy-21" fill="#BB8F9D" mask="url(#mask-2)" x="117" y="260" width="24" height="24"></rect>
            <rect id="Rectangle-Copy-16" fill="#BB8F9D" mask="url(#mask-2)" x="153" y="332" width="24" height="24"></rect>
            <rect id="Rectangle-Copy-94" fill="#BB8F9D" mask="url(#mask-2)" x="261" y="284" width="24" height="24"></rect>
            <rect id="Rectangle-Copy-104" fill="#BB8F9D" mask="url(#mask-2)" x="309" y="188" width="24" height="24"></rect>
            <rect id="Rectangle-Copy-135" fill="#BB8F9D" mask="url(#mask-2)" x="357" y="188" width="24" height="24"></rect>
            <rect id="Rectangle-Copy-136" fill="#BB8F9D" mask="url(#mask-2)" x="357" y="236" width="24" height="24"></rect>
            <rect id="Rectangle-Copy-149" fill="#BB8F9D" mask="url(#mask-2)" x="381" y="236" width="24" height="24"></rect>
            <rect id="Rectangle-Copy-150" fill="#BB8F9D" mask="url(#mask-2)" x="365" y="260" width="24" height="24"></rect>
            <rect id="Rectangle-Copy-78" fill="#BB8F9D" mask="url(#mask-2)" x="141" y="140" width="24" height="24"></rect>
            <rect id="Rectangle-Copy-86" fill="#BB8F9D" mask="url(#mask-2)" x="93" y="116" width="24" height="24"></rect>
            <rect id="Rectangle-Copy-79" fill="#61B1A2" mask="url(#mask-2)" x="165" y="116" width="24" height="24"></rect>
            <rect id="Rectangle-Copy-109" fill="#BB8F9D" mask="url(#mask-2)" x="141" y="68" width="24" height="24"></rect>
            <rect id="Rectangle-Copy-117" fill="#BB8F9D" mask="url(#mask-2)" x="165" y="20" width="24" height="24"></rect>
            <rect id="Rectangle-Copy-54" fill="#BB8F9D" mask="url(#mask-2)" x="69" y="308" width="24" height="24"></rect>
            <rect id="Rectangle-Copy-12" fill="#BB8F9D" mask="url(#mask-2)" x="105" y="404" width="24" height="24"></rect>
        </g>
    </g>
</svg>